<svg xmlns="http://www.w3.org/2000/svg" direction="ltr" width="2183.3181863189566" height="489.3015428107019" viewBox="-941.0266131585148 -149.93514589893127 2183.3181863189566 489.3015428107019" stroke-linecap="round" stroke-linejoin="round" style="background-color: transparent;"><defs/><g transform="matrix(1, 0, 0, 1, -925.5257, 49.5264)" opacity="1"><g transform="scale(1)"><path d="M1.7796,0.8755 T0.4825,3.5142 -1.4149,9.932 -2.3607,17.1048 -2.8939,23.5978 -3.181,30.9652 -3.3399,38.8154 -3.4193,46.9303 -3.4422,56.4971 -3.4441,65.5116 -3.4351,74.2292 -2.1433,85.2345 -0.1622,96.2949 0.9056,104.9381 2.6945,111.8155 4.9746,119.4764 7.484,127.5032 10.1257,135.6953 12.8228,143.9874 15.5396,152.337 17.053,162.3807 19.0965,172.6951 21.5057,184.7675 22.8004,196.6413 24.7431,206.5904 27.1251,218.5061 28.4423,231.6492 29.1164,242.5045 29.4653,250.8891 28.3082,259.5979 26.34,268.181 24.8814,276.0145 24.1107,280.1969 A2.0716,2.0716 0 0 1 20.0293,279.4831 T20.7237,275.2874 22.0453,267.2231 23.8874,259.053 24.9882,251.0415 24.6491,242.7684 24.0178,232.0675 22.8578,219.3767 20.5394,207.3937 18.5351,197.0982 17.3126,185.6266 14.9455,173.5054 12.8712,163.0153 11.5162,153.6688 8.7901,145.3294 6.1047,137.0232 3.4782,128.789 0.9634,120.7161 -1.3177,112.8967 -3.2385,105.4694 -4.2645,97.0033 -6.2566,85.6508 -7.5585,74.2315 -7.5259,65.5017 -7.4828,56.4788 -7.4204,46.8886 -7.3381,38.7392 -7.19,30.7969 -6.8946,23.2672 -6.3226,16.562 -5.171,8.7431 -3.0887,1.7834 -1.7796,-0.8755 A1.9833,1.9833 0 0 1 1.7796,0.8755 Z" stroke-linecap="round" fill="#f2f2f2"/></g></g><g transform="matrix(1, 0, 0, 1, -908.9656, 329.3593)" opacity="1"><g transform="scale(1)"><path d="M-1.3463,-1.3282 T1.2875,-3.9568 6.6287,-9.333 13.6747,-13.7274 22.9042,-16.1812 32.9753,-17.4024 44.8062,-18.034 58.8711,-18.3725 75.4143,-18.5593 94.5775,-18.6673 113.8157,-18.7343 133.0923,-18.7734 151.2505,-17.4674 166.0582,-15.4684 179.1299,-13.0722 192.5122,-10.495 205.8889,-9.1797 218.1789,-8.491 229.8671,-8.1376 241.2479,-7.9552 252.4665,-7.8559 263.6123,-7.796 273.7145,-6.4002 282.927,-4.3729 292.6903,-3.3651 303.0702,-2.8297 315.065,-2.5485 327.9152,-2.396 341.2183,-2.31 354.7583,-2.2639 367.1131,-2.245 379.9453,-3.5455 394.5493,-5.5665 410.1022,-7.9512 425.9555,-11.8196 442.3201,-15.2112 458.9462,-17.0207 474.0288,-19.2511 488.5145,-21.7582 502.8736,-23.1199 515.4181,-25.1305 527.2515,-27.5265 538.9459,-28.8273 550.3407,-29.5139 562.8736,-29.8814 575.7723,-31.3662 587.7855,-33.4651 599.5701,-34.5981 611.0107,-35.195 623.5764,-35.5081 636.7258,-35.6727 648.8707,-35.7656 661.7976,-35.822 675.1434,-35.8599 688.9133,-34.5482 702.7092,-32.5354 716.2919,-31.4841 729.9637,-30.9194 742.4,-30.6235 755.4783,-30.4731 768.8971,-30.3946 782.4946,-30.3536 797.2994,-31.6382 812.9391,-33.6483 827.8901,-34.7321 842.2959,-35.2955 856.4247,-35.5924 869.091,-35.7548 880.9877,-35.8542 893.7836,-35.9225 907.057,-35.9572 920.5814,-35.9593 935.5419,-35.9462 949.9533,-35.9292 964.0755,-35.9162 979.3508,-35.9126 993.9259,-35.9098 1006.8352,-35.9132 1019.1171,-34.5716 1030.8097,-32.5515 1043.2296,-31.5194 1056.3014,-30.9702 1069.7303,-30.6788 1083.3322,-30.5254 1097.0345,-30.4443 1111.0148,-29.0506 1123.6117,-26.9949 1135.2448,-25.9379 1146.5904,-25.3758 1158.0524,-23.7202 1169.3184,-21.5406 1180.2097,-20.4377 1191.1635,-19.8447 1203.4601,-19.5239 1217.7723,-19.3532 1233.152,-19.2623 1249.0884,-19.2136 1265.1322,-20.4947 1281.4223,-22.4955 1296.7154,-23.559 1311.3077,-24.1087 1325.53,-24.4018 1338.241,-24.5678 1350.1661,-24.6636 1361.6807,-24.7099 1373.2355,-23.37 1384.548,-21.3414 1395.7285,-18.9389 1406.8405,-16.3613 1418.9433,-15.0606 1433.1438,-14.3659 1448.4767,-13.9962 1464.3936,-13.8015 1480.6154,-13.687 1496.9975,-13.6247 1513.4638,-13.5966 1529.9744,-13.582 1546.5084,-13.5745 1561.7516,-13.5706 1576.3191,-13.5743 1590.7531,-12.234 1604.8694,-10.2104 1619.9065,-9.1639 1634.3741,-8.5993 1647.2277,-8.3053 1660.5252,-8.1629 1674.0568,-8.0965 1687.7141,-8.0585 1701.4384,-8.0272 1713.8958,-8.0028 1726.9853,-7.9808 1740.1703,-9.2622 1753.6628,-11.2752 1767.5306,-12.3727 1780.0469,-12.9454 1791.8726,-13.229 1804.6343,-13.3628 1817.8895,-13.4349 1831.4032,-13.477 1846.3584,-13.4989 1860.7667,-13.5102 1874.8873,-13.516 1890.1618,-13.519 1904.7364,-13.5205 1917.6392,-13.5212 1930.9687,-13.5216 1944.5208,-13.5217 1956.8823,-13.5218 1969.9168,-13.5213 1983.0817,-14.8189 1995.2388,-16.8303 2008.4181,-17.9108 2023.207,-18.4681 2038.6367,-20.0614 2053.2737,-22.2239 2065.0638,-23.38 2075.2154,-23.9869 2084.5008,-24.3063 2093.3105,-24.4609 2101.8454,-24.5337 2108.5005,-25.7946 2112.7284,-28.7828 2116.1758,-34.0938 2119.311,-41.9625 2122.31,-51.4762 2125.2329,-60.5515 2128.0722,-69.3143 2130.8525,-79.1527 2132.2483,-90.6628 2134.3236,-104.8724 2136.718,-120.3212 2137.9608,-133.587 2138.6237,-144.5351 2137.6997,-153.9046 2135.8833,-162.8361 2133.6679,-171.4706 2131.2019,-178.5957 2128.6362,-184.9463 2125.9495,-190.9555 2124.391,-197.1697 2122.4296,-202.673 2120.0664,-208.2216 2118.6799,-214.338 2119.3511,-220.7447 2120.9915,-226.7058 2121.7704,-233.2795 2122.1974,-240.7108 2122.4456,-247.2674 2121.3663,-252.8874 2119.5316,-258.4038 2118.4186,-264.5902 2114.2844,-265.8966 2107.5558,-263.1763 2100.2221,-261.9258 2092.4257,-261.3043 2084.4413,-260.9905 2073.6906,-260.8218 2061.4891,-260.7361 2050.811,-262.0551 2040.0241,-264.0383 2028.1416,-265.0368 2017.8961,-265.5879 2008.2767,-267.2366 1999.2608,-269.4208 1989.6384,-270.5271 1978.0874,-271.1142 1966.7368,-271.4271 1955.537,-271.592 1943.1091,-271.6787 1930.0296,-271.7242 1917.9284,-271.7502 1907.9773,-270.4914 1898.7886,-268.4889 1888.3807,-267.3743 1876.3717,-266.7932 1863.5185,-266.4942 1850.2232,-266.3435 1835.3818,-266.2589 1821.0373,-266.2078 1808.2563,-266.1731 1797.6041,-266.1463 1788.0738,-266.1416 1777.8268,-266.164 1765.8992,-266.1994 1751.7805,-266.2254 1736.5071,-266.2075 1721.933,-266.1576 1709.0305,-266.1216 1697.0066,-266.114 1685.4505,-266.1207 1674.1342,-266.1322 1661.4061,-267.4787 1648.1602,-269.4939 1634.8962,-270.5289 1621.3916,-271.0705 1609.0419,-271.3498 1597.3133,-271.4943 1585.9142,-271.5685 1574.6854,-271.606 1562.2385,-271.6248 1547.8462,-271.6399 1532.4283,-271.6547 1516.4701,-271.6641 1501.5327,-271.6581 1488.4411,-271.6411 1476.32,-271.6286 1464.6909,-271.622 1454.2726,-272.9993 1444.8985,-275.0311 1435.1168,-276.0413 1424.7255,-276.5891 1412.7199,-276.8806 1398.5599,-277.0469 1383.2598,-277.1492 1367.3627,-277.2071 1349.8489,-277.2283 1331.4829,-277.227 1313.971,-277.2297 1296.9094,-277.2426 1280.0851,-277.2575 1263.3858,-277.2679 1246.7524,-277.2691 1231.4568,-277.2638 1218.1694,-277.2599 1204.6371,-277.2571 1190.9853,-277.2613 1176.1518,-275.9585 1159.1919,-273.9433 1142.2277,-272.8666 1124.1451,-272.3033 1104.1726,-272.0081 1084.5133,-271.8534 1066.321,-271.7784 1048.9002,-271.7465 1030.5784,-271.7198 1011.782,-271.6865 994.0436,-271.6525 975.5594,-271.6231 956.6823,-271.6085 938.9011,-271.6044 921.6976,-271.6016 906.1016,-271.5936 891.3527,-271.5878 877.055,-271.5898 864.3006,-271.5912 852.3547,-271.58 840.829,-271.5608 829.2307,-272.9089 817.898,-274.9398 807.0075,-275.9772 796.053,-276.5322 783.7582,-276.8335 770.7483,-277.0067 756.0587,-277.108 739.3851,-275.854 721.4429,-273.8579 702.6506,-272.7844 683.7869,-270.9212 664.7101,-268.6218 645.3475,-267.3961 625.998,-266.7541 607.9716,-266.4181 590.6364,-266.2419 574.9736,-266.1495 560.1914,-266.1013 545.8754,-266.0761 533.1093,-266.0569 521.157,-266.0396 509.6385,-266.0346 498.3464,-266.0378 485.8656,-266.0345 472.7608,-266.0261 460.6351,-266.0263 449.0229,-266.0326 436.3735,-266.0372 423.1799,-266.0405 409.6994,-266.043 396.0702,-266.0447 382.3626,-266.0522 368.6089,-266.0636 354.8309,-266.0659 341.049,-266.0682 328.8373,-264.7832 317.1816,-262.7782 305.5464,-261.6849 294.1875,-261.1081 282.977,-260.8106 271.8441,-260.6607 260.7574,-260.5831 248.389,-260.5432 235.3413,-260.5229 223.2415,-260.5126 210.3373,-260.5137 197.0118,-260.5158 184.7674,-260.5118 171.7848,-260.5154 158.4155,-260.5243 146.1504,-260.537 134.4647,-260.5463 123.0821,-260.5408 110.5561,-260.5306 98.7329,-260.5233 88.5857,-260.518 79.3217,-260.5203 70.5207,-260.528 61.9662,-260.5276 54.8517,-260.5211 47.1859,-260.5225 39.2296,-260.5297 31.1455,-260.5393 23.3766,-259.2896 15.2696,-257.2664 6.2358,-257.4925 0.2473,-259.7857 -1.5306,-261.0859 A2.4901,2.4901 0 0 1 1.5306,-265.0141 T2.4928,-264.179 6.6491,-262.4202 14.1254,-262.1281 22.4836,-264.1569 31.095,-265.5607 39.2296,-265.5703 47.1859,-265.5775 54.8517,-265.5789 61.9662,-265.5724 70.5207,-265.572 79.3217,-265.5798 88.5857,-265.5821 98.7329,-265.5768 110.5561,-265.5695 123.0821,-265.5594 134.4647,-265.554 146.1503,-265.5635 158.4153,-265.5768 171.7844,-265.5867 184.7666,-265.5921 197.0105,-265.5916 210.3347,-265.6004 223.2365,-265.6141 235.3325,-265.6279 248.3704,-265.6532 260.7195,-265.6998 271.7722,-265.7863 282.841,-265.9478 293.9324,-266.2413 305.0746,-266.7857 316.3273,-267.8203 328.2757,-269.8528 341.0361,-271.2118 354.8309,-271.2141 368.6089,-271.2164 382.3626,-271.2279 396.0702,-271.2353 409.6994,-271.2371 423.1799,-271.2396 436.3735,-271.243 449.0228,-271.2478 460.635,-271.2544 472.7606,-271.2551 485.8651,-271.2479 498.3454,-271.2467 509.6368,-271.2539 521.1539,-271.2566 533.1037,-271.2538 545.8661,-271.2621 560.1738,-271.2891 574.9431,-271.3399 590.5832,-271.4355 607.8745,-271.6159 625.8266,-271.9566 645.0125,-272.5988 664.0911,-273.8099 683.2862,-276.1344 702.355,-278.0279 720.8513,-279.0657 738.9848,-281.0758 756.0853,-282.3885 770.8113,-282.3251 783.8924,-282.1857 796.3252,-281.8939 807.5203,-281.3237 818.8507,-280.2257 829.8654,-278.2047 840.8456,-276.8993 852.3547,-276.88 864.3005,-276.8689 877.055,-276.8704 891.3526,-276.8725 906.1015,-276.867 921.6974,-276.8595 938.9009,-276.8577 956.6818,-276.8554 975.5585,-276.8444 994.0418,-276.8216 1011.7788,-276.8004 1030.5719,-276.7912 1048.8876,-276.8102 1066.2981,-276.8651 1084.4732,-276.9548 1104.0958,-277.1127 1123.9812,-277.4105 1141.9043,-277.9725 1158.5905,-279.0312 1175.7569,-281.0679 1190.9807,-282.4186 1204.6372,-282.4228 1218.1694,-282.4198 1231.4569,-282.4156 1246.7525,-282.4098 1263.3861,-282.41 1280.0856,-282.4186 1296.9104,-282.4299 1313.9729,-282.4362 1331.4863,-282.4262 1349.8558,-282.4007 1367.3769,-282.3761 1383.288,-282.3473 1398.6187,-282.2849 1412.8554,-282.1386 1425.0071,-281.8371 1435.6743,-281.2594 1446.0343,-280.1342 1455.0711,-278.1139 1464.7249,-276.8374 1476.3202,-276.8303 1488.4415,-276.8168 1501.5333,-276.798 1516.4712,-276.7884 1532.4304,-276.7912 1547.8506,-276.7933 1562.2483,-276.7845 1574.7051,-276.7576 1585.951,-276.7087 1597.3808,-276.6187 1609.1623,-276.4518 1621.5972,-276.1402 1635.3047,-275.5604 1648.9138,-274.4677 1661.8884,-272.4454 1674.1427,-271.1479 1685.4504,-271.1593 1697.0066,-271.1662 1709.0304,-271.1587 1721.9329,-271.1229 1736.5069,-271.0736 1751.7802,-271.0566 1765.8984,-271.0845 1777.8251,-271.1234 1788.0705,-271.1525 1797.5987,-271.1604 1808.2475,-271.1575 1821.0226,-271.1682 1835.3542,-271.2033 1850.1637,-271.2823 1863.4058,-271.442 1876.1272,-271.7319 1887.866,-272.2684 1897.7483,-273.2744 1907.2525,-275.2957 1917.9085,-276.6552 1930.0469,-276.6321 1943.1454,-276.5845 1955.61,-276.4945 1966.8728,-276.3243 1978.3372,-276.0012 1990.2608,-275.3816 2000.4014,-274.198 2009.0779,-272.0371 2018.1672,-270.458 2028.559,-269.9014 2040.9732,-268.7981 2051.5093,-266.793 2061.4838,-265.5614 2073.6082,-265.6529 2084.2356,-265.8206 2092.0449,-266.1451 2099.3545,-266.7347 2105.8218,-267.7823 2111.3373,-269.8245 2116.9515,-269.0919 2121.5574,-264.9753 2124.1538,-260.1513 2126.1654,-253.8787 2127.4392,-247.1811 2127.207,-240.4169 2126.7225,-232.606 2125.7719,-225.3267 2124.1303,-220.0709 2123.5192,-215.2456 2124.645,-210.1012 2127.0488,-204.3165 2129.1879,-198.3667 2130.4646,-192.9008 2133.1577,-186.7812 2135.8371,-180.169 2138.3604,-172.7494 2140.6581,-163.8192 2142.4509,-154.4906 2143.4303,-144.2806 2142.7595,-133.1455 2141.4715,-119.5773 2139.0637,-104.1945 2136.972,-90.0393 2135.4062,-77.8653 2132.5667,-67.8844 2129.6966,-59.1443 2126.7402,-50.0766 2123.5464,-40.233 2119.8941,-31.4574 2115.4071,-25.2721 2109.5247,-21.5151 2101.9496,-20.0293 2093.4001,-19.9254 2084.6545,-19.7445 2075.4914,-19.4274 2065.4994,-18.8265 2053.9297,-17.6907 2039.1037,-15.5043 2023.3894,-13.8626 2008.8078,-13.2985 1995.9819,-12.2512 1983.5651,-10.225 1969.9268,-8.8785 1956.8823,-8.8779 1944.5209,-8.8777 1930.9689,-8.8773 1917.6395,-8.8767 1904.737,-8.8756 1890.1628,-8.8735 1874.8894,-8.8698 1860.7705,-8.863 1846.3656,-8.8502 1831.4185,-8.8264 1817.918,-8.7817 1804.6938,-8.6892 1791.9908,-8.5108 1780.2592,-8.2019 1767.8924,-7.6502 1754.3702,-6.6142 1740.6611,-4.5788 1726.9932,-3.2134 1713.8912,-3.2041 1701.4305,-3.2038 1687.6983,-3.2182 1674.0279,-3.267 1660.4673,-3.3655 1647.1193,-3.5357 1634.193,-3.8349 1619.5689,-4.396 1604.1754,-5.4855 1590.2749,-7.5151 1576.3092,-8.8307 1561.7503,-8.8389 1546.5061,-8.8435 1529.97,-8.8521 1513.4554,-8.8682 1496.9815,-8.8983 1480.5848,-8.9463 1464.334,-9.0413 1448.3595,-9.244 1432.9036,-9.6284 1418.4076,-10.3646 1405.7842,-11.7791 1394.7494,-14.3537 1383.7141,-16.7105 1372.6889,-18.6955 1361.6836,-19.9544 1350.1983,-19.9147 1338.2979,-19.8474 1325.6256,-19.704 1311.4908,-19.41 1297.0376,-18.8455 1281.9968,-17.7949 1265.5081,-15.7842 1249.0794,-14.4703 1233.1245,-14.5149 1217.7157,-14.6009 1203.332,-14.766 1190.9034,-15.0825 1179.7213,-15.6985 1168.4175,-16.89 1157.3761,-19.0639 1146.3447,-20.6521 1134.8167,-21.228 1122.8551,-22.3304 1110.5156,-24.3723 1096.996,-25.7186 1083.279,-25.8016 1069.624,-25.9596 1056.1037,-26.2591 1042.8196,-26.8312 1030.0091,-27.9268 1018.5891,-29.944 1006.8227,-31.2462 993.9261,-31.2491 979.3511,-31.2454 964.0761,-31.2399 949.9544,-31.2234 935.5439,-31.1998 920.5858,-31.1741 907.0651,-31.1523 893.8003,-31.1417 881.0199,-31.124 869.1478,-31.0602 856.5207,-30.9131 842.4807,-30.6225 828.2163,-30.0713 813.5275,-29.0399 797.6876,-27.0364 782.4852,-25.7225 768.8694,-25.7676 755.4218,-25.8527 742.2923,-26.0127 729.7792,-26.3059 715.9263,-26.8587 702.0429,-27.9282 688.4929,-29.9397 675.1447,-31.2469 661.8142,-31.2369 648.9028,-31.2027 636.7816,-31.1236 623.6937,-30.9617 611.2453,-30.6554 600.0016,-30.0769 588.5597,-28.9796 576.3171,-26.8464 563.0163,-25.3178 550.6066,-24.9846 539.435,-24.3415 528.1264,-23.1192 516.1374,-20.7274 503.2867,-18.6883 489.275,-17.4006 474.7071,-14.8806 459.4316,-12.5889 443.2239,-10.8348 427.0116,-7.4645 410.7754,-3.5191 395.1639,-1.1293 380.3586,0.8744 367.112,2.1939 354.7443,2.1668 341.19,2.1257 327.8617,2.0464 314.9501,1.885 302.8326,1.5708 292.2217,0.9763 281.9719,-0.1598 273.0353,-2.2008 263.5623,-3.5073 252.4264,-3.5583 241.1733,-3.669 229.731,-3.8854 217.9379,-4.2886 205.4799,-5.0356 191.7143,-6.4446 178.3739,-9.0369 165.5102,-11.4148 150.9134,-13.4395 133.093,-14.7516 113.8253,-14.7413 94.5962,-14.7145 75.456,-14.6448 58.9614,-14.4941 45.0164,-14.1924 33.424,-13.6091 23.8296,-12.525 15.5517,-10.6043 9.1853,-6.6981 3.9391,-1.3408 1.3463,1.3282 A1.8912,1.8912 0 0 1 -1.3463,-1.3282 Z" stroke-linecap="round" fill="#f2f2f2"/></g></g><g transform="matrix(1, 0, 0, 1, 167.4433, 77.5097)" opacity="1"><g transform="scale(1)"><path d="M1.3208,1.3019 T-1.4511,4.0802 -4.223,6.8585 A1.8071,1.8071 0 0 1 -6.797,4.3215 T-4.0589,1.5098 -1.3208,-1.3019 A1.8546,1.8546 0 0 1 1.3208,1.3019 Z" stroke-linecap="round" fill="#f2f2f2"/></g></g><g transform="matrix(1, 0, 0, 1, 150.8831, 71.913)" opacity="1"><g transform="scale(1)"><path d="M1.95,0 T1.9511,3.9708 1.953,11.3563 1.9606,19.2193 1.9662,29.9828 1.9639,43.5968 1.9686,56.0642 1.9845,66.6054 2.0024,76.1314 2.0153,85.1225 2.0247,93.8316 2.0378,102.3921 2.0535,110.8744 2.065,119.3154 2.0795,129.0614 2.0951,140.8077 3.3741,152.0218 5.3687,161.9076 7.7188,171.0243 10.3101,179.8197 11.761,188.7299 12.4961,196.0174 14.0825,202.1167 17.0185,208.2841 18.6991,211.9877 18.8027,212.5198 18.7758,213.0612 18.6202,213.5804 18.3448,214.0473 17.9658,214.4347 17.505,214.7202 16.9892,214.887 16.4486,214.9256 15.9144,214.8337 15.4177,214.6166 14.9874,214.2869 14.6486,213.8639 13.0228,211.5507 10.6993,206.0866 9.5966,199.7676 9.2033,193.9396 10.3545,186.5548 12.2525,178.6757 13.1884,170.9151 13.6839,161.5741 13.9623,152.6527 14.1172,143.9781 14.1886,135.4398 14.2191,126.9676 14.227,118.5331 14.2224,110.1167 14.2233,99.0639 15.5498,85.0958 17.5527,72.3949 18.582,61.9338 19.1166,52.4827 19.4242,43.5932 18.4051,36.7621 16.5265,31.7797 15.4107,24.6521 14.845,16.9258 14.5777,8.9894 13.2745,2.6741 11.2237,-2.0308 10.3108,-7.2559 11.0204,-9.1781 12.6475,-1.8894 12.1042,10.6408 10.0465,23.0542 8.9996,35.9587 7.1064,48.3215 4.814,60.1323 3.6429,71.4082 3.0195,82.6358 2.6889,92.5291 2.5115,101.6914 3.6668,110.1307 5.606,118.5941 6.6931,128.7086 8.5276,140.4233 10.7955,151.8334 12.0281,163.3754 12.6852,176.1271 13.0213,186.7864 13.1918,196.3793 13.3215,204.2221 13.3927,207.0134 A2.3434,2.3434 0 0 1 8.7073,207.1266 T8.643,204.3069 8.5155,196.4672 8.3335,186.9305 8.0008,176.3605 7.3888,163.8983 6.2134,152.7182 3.9117,141.0989 2.0478,129.2014 1.0892,119.633 -0.8532,110.8523 -2.118,101.6398 -1.9423,92.3769 -1.6028,82.3771 -0.9547,70.9268 0.287,59.2572 2.573,47.6149 4.4219,35.5796 5.5304,22.2746 7.5626,10.0586 8.923,-0.5219 10.0742,-9.5992 12.3591,-12.6548 14.2171,-9.0509 15.4833,-3.7898 17.5674,1.3507 19.1649,8.6821 19.4563,16.6066 19.951,23.9071 20.8472,30.2238 22.7863,35.6828 24.0663,43.6295 23.7909,52.7469 23.2193,62.395 22.1496,73.1056 20.1695,85.5091 18.8836,99.0728 18.8727,110.1232 18.8456,118.5445 18.811,126.9904 18.7609,135.4798 18.6791,144.057 18.5435,152.7902 18.2706,161.8311 17.72,171.5044 16.671,179.7374 14.8026,187.137 13.7523,193.6746 14.1269,199.1952 14.4814,204.3584 16.6046,209.2424 18.6991,211.9877 18.8027,212.5198 18.7758,213.0612 18.6202,213.5804 18.3448,214.0473 17.9658,214.4347 17.505,214.7202 16.9892,214.887 16.4486,214.9256 15.9144,214.8337 15.4177,214.6166 14.9874,214.2869 14.6486,213.8639 12.9102,210.1871 9.791,203.2828 8.0237,196.5021 7.3406,189.4017 6.1002,181.0447 3.5849,172.1446 1.2172,162.7532 -0.7679,152.5888 -2.0951,140.8266 -2.0795,129.0614 -2.065,119.3154 -2.0535,110.8744 -2.0378,102.3921 -2.0247,93.8316 -2.0153,85.1225 -2.0024,76.1314 -1.9845,66.6054 -1.9686,56.0642 -1.9639,43.5968 -1.9662,29.9828 -1.9606,19.2193 -1.953,11.3563 -1.9511,3.9708 -1.95,0 A1.95,1.95 0 0 1 1.95,0 ZM8.7066,207.0787 T8.689,204.3841 8.6827,197.659 10.037,188.5628 12.0419,178.4917 14.3903,167.9251 16.9009,157.0481 18.1716,146.2917 18.8621,136.6412 19.3917,130.4114 19.6772,128.3916 A2.4166,2.4166 0 0 1 24.4628,129.0684 T24.205,130.8896 23.7038,136.9835 22.9815,146.8765 21.5712,158.135 18.9948,168.9452 16.6356,179.4259 14.6533,189.206 13.3871,197.6915 13.3912,204.3835 13.3934,207.0613 A2.3434,2.3434 0 0 1 8.7066,207.0787 ZM24.4862,128.7705 T24.3711,133.2465 22.9204,142.5241 20.9297,152.1777 18.5819,163.7614 16.0346,176.5139 13.3865,189.8437 10.6706,204.8375 6.7401,216.2215 1.8605,216.6861 -0.5724,209.2112 -0.0789,199.8694 1.4974,189.7425 2.6204,176.2266 3.2225,167.7362 A2.2934,2.2934 0 0 1 7.7975,168.0638 T7.1777,176.6322 5.9824,190.469 4.3811,200.1161 3.8108,209.9827 4.8475,213.6369 6.3717,203.9543 9.061,189.008 11.6972,175.6647 14.2046,162.9259 16.5029,151.2609 18.383,141.9216 19.618,133.222 19.6538,128.6895 A2.4166,2.4166 0 0 1 24.4862,128.7705 ZM7.7439,168.419 T6.1079,175.0939 2.579,185.3061 -1.5918,194.6041 -5.0234,207.2272 -7.1078,217.1528 -8.0422,222.4054 -8.4477,219.724 -7.2476,210.0879 -4.8808,199.1587 -2.3139,188.0661 0.3864,179.4473 3.1249,174.2774 7.1944,175.5923 10.3879,182.614 11.8013,192.9931 12.4826,203.6542 12.9717,215.9758 13.2289,223.7887 A2.1801,2.1801 0 0 1 8.8711,223.9313 T8.6179,216.1582 8.1386,203.9222 7.4926,193.6047 6.3873,184.263 4.8017,178.9857 4.7751,177.0677 4.7132,180.8328 2.0997,189.1687 -0.471,200.1955 -2.9076,211.1339 -5.8768,217.8884 -9.2481,221.2047 -10.8381,217.7334 -9.1941,206.07 -5.5509,192.7967 -1.2694,183.0947 1.9665,173.3855 3.2761,167.381 A2.2934,2.2934 0 0 1 7.7439,168.419 ZM8.8702,223.8921 T8.8007,218.9691 8.7459,208.9045 8.7559,200.5882 7.4868,193.4058 5.4931,184.299 4.3902,173.8746 3.8214,163.1016 3.5235,150.8092 3.3665,137.7133 3.2773,125.519 3.2225,113.7989 3.1913,102.3293 3.1731,90.9871 3.1622,79.7169 3.1494,69.8067 3.1346,60.6132 3.127,50.4578 4.487,40.7788 6.5086,33.0076 7.5254,25.4044 6.8611,19.3065 5.2547,14.7881 4.1845,9.0794 3.2611,8.3936 3.9473,14.468 5.7092,23.1804 6.6865,34.7543 7.21,48.774 8.7711,62.5418 10.9049,75.0839 12.05,87.2048 12.642,98.896 12.9503,110.3577 13.1108,123.0206 13.2005,137.6361 13.2482,151.951 13.2674,164.7873 13.2755,175.5142 14.5474,184.8648 16.5248,195.0665 18.7646,202.8829 22.1554,208.4052 24.0137,211.5239 A2.2616,2.2616 0 0 1 20.1263,213.8361 T18.2729,210.7144 14.6208,204.3953 12.1533,195.9827 10.1439,185.4416 8.7962,175.5369 8.7788,164.7957 8.7497,151.9652 8.7057,137.6633 8.6214,123.0817 8.4519,110.481 8.134,99.1264 7.5375,87.6275 6.4276,75.8312 4.2824,63.0764 2.6961,48.9472 2.2199,35.1534 1.3003,24.0895 -0.5374,14.9499 -0.8397,6.7378 2.64,4.9597 7.0836,8.7117 9.5711,12.9855 11.3804,18.3252 12.2254,25.8982 11.1338,34.2018 9.1545,41.5446 7.8951,50.4924 7.8893,60.6123 7.8779,69.8052 7.8717,79.7143 7.8734,90.9822 7.8789,102.3201 7.8926,113.782 7.9232,125.4883 7.9961,137.6595 8.1465,150.6934 8.4321,162.8611 8.9704,173.398 9.9684,183.323 11.9611,192.7252 13.284,200.5772 13.173,209.1128 13.1575,219.134 13.2298,223.8279 A2.1801,2.1801 0 0 1 8.8702,223.8921 Z" stroke-linecap="round" fill="#f2f2f2"/></g></g><g transform="matrix(1, 0, 0, 1, 95.6827, -68.0034)" opacity="1"><g transform="scale(1)"><path d="M1.8574,0 T0.9287,1.7139 4.0227,1.0897 11.058,-3.898 18.1867,-11.8143 27.1801,-22.6014 37.1705,-34.9317 47.7268,-46.8128 57.0626,-53.1022 62.728,-52.0951 64.1124,-45.7026 62.1309,-35.5086 58.4073,-22.3613 53.8491,-7.5215 48.8086,6.9641 43.308,21.2058 40.42,28.6812 A1.9188,1.9188 0 0 1 36.84,27.2988 T39.7255,19.8225 45.1804,5.6928 50.1824,-8.6532 54.7626,-23.4003 58.4884,-36.256 60.7246,-45.2643 60.1946,-50.1871 57.2821,-50.564 50.3408,-44.4103 39.9285,-32.6802 29.9389,-20.3119 20.8282,-9.3368 13.4393,-1.0627 5.1836,4.4285 -0.9287,3.5837 -1.8574,0 A1.8574,1.8574 0 0 1 1.8574,0 Z" stroke-linecap="round" fill="#f2f2f2"/></g></g><g transform="matrix(1, 0, 0, 1, 189.5234, -34.4235)" opacity="1"><g transform="scale(1)"><path d="M-1.3321,1.3143 T-3.9936,-1.5048 -5.4691,-8.7819 -0.1635,-15.4936 4.0934,-17.9193 4.4048,-18.2255 4.7805,-18.4483 5.1986,-18.5747 5.6347,-18.5974 6.0637,-18.515 6.4604,-18.3323 6.8019,-18.0601 7.0683,-17.714 7.2442,-17.3142 7.3192,-16.8839 7.2891,-16.4482 7.1556,-16.0324 4.6898,-14.0485 2.0244,-11.4271 1.7328,-10.5899 A1.8371,1.8371 0 0 1 -1.7328,-11.8101 T-1.4355,-12.6453 1.4091,-15.6139 4.0934,-17.9193 4.4048,-18.2255 4.7805,-18.4483 5.1986,-18.5747 5.6347,-18.5974 6.0637,-18.515 6.4604,-18.3323 6.8019,-18.0601 7.0683,-17.714 7.2442,-17.3142 7.3192,-16.8839 7.2891,-16.4482 7.1556,-16.0324 2.8483,-13.5011 -2.5826,-8.7205 -1.2331,-3.7928 1.3321,-1.3143 A1.8713,1.8713 0 0 1 -1.3321,1.3143 Z" stroke-linecap="round" fill="#f2f2f2"/></g></g><g transform="matrix(1, 0, 0, 1, -368.0011, 88.703)" opacity="1"><g transform="scale(1)"><path d="M-1.6925,-0.8326 T-0.3771,-3.1936 -0.3765,-8.004 -1.6912,-10.4533 A1.8487,1.8487 0 0 1 1.6912,-11.9467 T2.9827,-8.4936 2.9834,-2.104 1.6925,0.8326 A1.8862,1.8862 0 0 1 -1.6925,-0.8326 ZM1.8387,-11.3919 T2.1979,-7.6727 2.4051,-0.4075 2.1627,9.0085 0.7092,23.4122 -1.3514,40.2753 -2.4108,59.6031 -2.9623,80.3804 -3.2507,100.6045 -4.7236,119.3556 -6.7984,135.8564 -8.3971,148.9359 -7.3831,153.0204 -4.8104,149.3931 -3.6594,142.3805 -1.559,131.8067 0.8531,118.2732 3.4104,101.9224 6.0825,82.7106 7.4887,63.4477 8.2381,45.3475 7.338,29.3628 5.5468,15.6556 4.5842,4.3098 4.0645,-5.6541 3.6736,-19.3911 3.4711,-27.9443 A2.0394,2.0394 0 0 1 7.5489,-28.0357 T7.7297,-19.5042 8.0662,-5.8576 8.5433,3.9855 9.4724,15.1547 11.2706,29.1006 12.2092,45.5021 11.4752,63.7337 10.0667,83.2723 7.3977,102.5314 4.7925,118.9889 2.3807,132.536 0.2733,143.2092 -1.6149,151.4096 -7.0299,155.8732 -11.255,150.1885 -10.6566,135.3677 -8.5624,119.0135 -7.0966,100.543 -6.7813,80.2771 -6.1872,59.3798 -5.0728,39.8201 -3.0085,23.0843 -1.5802,8.8895 -1.2998,-0.8047 -1.474,-7.7904 -1.8387,-11.0081 A1.8487,1.8487 0 0 1 1.8387,-11.3919 ZM7.5493,-28.0116 T7.5975,-22.8865 7.5989,-12.765 7.5438,-3.2831 7.5371,7.5403 6.2282,21.3634 4.2503,37.8923 3.2217,57.0078 2.6694,77.689 1.0657,99.3033 -1.0815,119.9668 -2.1917,138.6806 -2.7762,153.84 -3.212,161.1618 -3.4774,162.6264 -3.6122,163.1037 -3.8573,163.5348 -4.1984,163.8948 -4.6158,164.1626 -5.0852,164.3228 -5.5792,164.3659 -6.0692,164.2896 -6.5268,164.0983 -6.9252,163.803 -7.2414,163.4209 -7.4569,162.9743 -7.5593,162.489 -5.9213,159.9352 -3.8859,154.9108 -3.1736,149.279 -2.667,143.5147 -2.409,136.5242 -2.2751,126.2276 -2.1934,112.85 -2.1211,91.993 -2.0847,78.3555 A2.0847,2.0847 0 0 1 2.0847,78.3645 T2.0616,92.0053 2.0211,112.8751 1.9481,126.2934 1.7884,136.7038 1.4894,143.8837 0.9392,149.9384 -1.4276,157.707 -3.4774,162.6264 -3.6122,163.1037 -3.8573,163.5348 -4.1984,163.8948 -4.6158,164.1626 -5.0852,164.3228 -5.5792,164.3659 -6.0692,164.2896 -6.5268,164.0983 -6.9252,163.803 -7.2414,163.4209 -7.4569,162.9743 -7.5593,162.489 -7.3501,161.0189 -6.9172,153.6779 -6.311,138.4359 -5.1619,119.549 -3.022,99.0029 -1.4361,77.5772 -0.8815,56.78 0.1903,37.3804 2.1981,20.9991 3.5067,7.5305 3.5213,-3.2939 3.5571,-12.9589 3.5289,-23.051 3.4707,-27.9684 A2.0394,2.0394 0 0 1 7.5493,-28.0116 ZM2.0847,78.3622 T2.071,86.1065 2.0263,98.1375 0.6736,110.1356 -1.3141,127.0207 -2.3337,145.0171 -2.8669,161.1406 -3.2513,173.8115 -3.4561,179.1814 A2.0555,2.0555 0 0 1 -7.5639,179.0186 T-7.3444,173.677 -6.9236,161.0052 -6.3532,144.7867 -5.2789,126.5351 -3.2931,109.7948 -2.0515,98.1612 -2.0875,86.1312 -2.0847,78.3578 A2.0847,2.0847 0 0 1 2.0847,78.3622 ZM-7.4609,178.4526 T-6.1399,174.4348 -2.857,164.3701 2.7946,149.754 10.4986,133.6335 16.8212,126.221 19.3103,132.7841 17.9497,147.4599 14.2801,164.0461 8.7712,177.3439 3.6173,181.9869 1.9682,177.7169 2.3995,169.7632 4.2083,159.4451 7.8278,147.136 12.3739,137.1877 14.802,133.2344 A2.0662,2.0662 0 0 1 18.318,135.4056 T16.0974,138.9804 11.8226,148.3342 8.2981,160.1061 6.4686,170.3785 4.9686,176.374 4.6001,178.4683 6.8215,175.1011 10.3622,163.1647 13.9468,146.9378 16.4334,134.506 16.332,129.8051 12.7935,136.1752 6.7312,151.243 1.124,165.6683 -2.2118,175.7244 -3.5591,179.7474 A2.0555,2.0555 0 0 1 -7.4609,178.4526 ZM18.535,134.9272 T16.6094,141.1303 12.9707,153.6981 9.0472,166.1045 5.7153,176.5195 3.2009,183.3276 1.8079,185.7626 A2.1022,2.1022 0 0 1 -1.8079,183.6174 T-0.6237,181.7082 1.7522,175.2559 5.1226,164.853 8.9715,152.8264 12.6133,140.1862 14.585,133.7128 A2.0662,2.0662 0 0 1 18.535,134.9272 ZM-2.0958,184.526 T-1.7536,180.1211 -0.2755,169.6426 2.766,155.196 6.9647,134.5287 11.7701,107.8043 15.6025,80.5422 17.6202,55.6634 18.6935,34.6123 19.2688,19.5385 19.7075,12.1383 19.9463,10.8073 A2.1596,2.1596 0 0 1 24.1937,11.5927 T23.9995,12.604 23.6163,19.7006 23.0653,34.8282 22.0015,56.0153 19.9639,81.1459 16.1011,108.5868 11.2502,135.4192 7.0163,156.0993 3.9747,169.8849 2.4694,180.1107 2.0958,184.854 A2.1022,2.1022 0 0 1 -2.0958,184.526 ZM24.2294,11.2302 T24.1415,15.498 22.754,28.4857 19.4704,50.9749 13.8209,82.6499 6.9327,116.578 2.0231,144.9527 -0.5591,166.4567 -2.456,185.8492 -3.4575,196.0902 A2.0622,2.0622 0 0 1 -7.5625,195.6898 T-6.5658,185.4483 -4.671,165.9745 -2.0566,144.2634 2.8947,115.758 9.7722,81.9457 15.3806,50.3767 18.5961,28.206 19.8782,15.4942 19.9106,11.1698 A2.1596,2.1596 0 0 1 24.2294,11.2302 Z" stroke-linecap="round" fill="#f2f2f2"/></g></g><g transform="matrix(1, 0, 0, 1, -445.2818, -118.3733)" opacity="1"><g transform="scale(1)"><path d="M-1.6841,-0.8285 T-0.358,-3.5042 4.5167,-9.1855 12.7008,-13.7794 23.7374,-16.1553 35.1255,-15.9144 42.9686,-11.3693 45.9151,-4.3676 43.2599,3.7352 36.4466,13.3209 26.2508,23.6083 14.4355,35.5519 4.4577,48.2692 -0.8895,58.0693 1.2154,63.7547 8.3141,65.5166 19.8025,65.2568 32.6331,65.2189 43.7938,65.2227 49.675,65.2213 A1.9387,1.9387 0 0 1 49.685,69.0987 T43.8038,69.1276 32.645,69.1891 19.8313,69.2302 7.4398,69.1202 -1.0481,66.1493 -3.7655,57.8368 1.5725,46.0926 11.8703,32.9985 23.6653,21.0859 33.5168,11.2096 39.9632,2.6207 42.6332,-3.6586 40.8212,-8.878 34.6896,-12.453 24.5055,-12.5508 14.4168,-10.5523 7.2959,-6.8456 2.9642,-1.7934 1.6841,0.8285 A1.8768,1.8768 0 0 1 -1.6841,-0.8285 Z" stroke-linecap="round" fill="#f2f2f2"/></g></g><g transform="matrix(1, 0, 0, 1, -345.921, -51.2134)" opacity="1"><g transform="scale(1)"><path d="M1.3781,1.3583 T-1.3702,4.16 -4.1185,6.9616 A1.9539,1.9539 0 0 1 -6.9015,4.2184 T-4.1398,1.43 -1.3781,-1.3583 A1.935,1.935 0 0 1 1.3781,1.3583 Z" stroke-linecap="round" fill="#f2f2f2"/></g></g><g transform="matrix(1, 0, 0, 1, -114.079, 55.1231)" opacity="1"><g transform="scale(1)"><path d="M1.2638,1.2469 T-1.3616,3.8324 -5.1978,10.1605 -7.0665,21.1504 -8.0831,37.5575 -8.6214,56.8435 -8.8854,77.605 -9.0037,99.1381 -9.0511,119.7503 -9.0686,138.5548 -9.0787,156.4061 -9.0687,173.7553 -9.0464,190.8399 -9.0415,205.1365 -9.0426,211.8097 -9.0423,212.6831 A2.0077,2.0077 0 0 1 -13.0577,212.6769 T-13.0547,211.8062 -13.0507,205.1355 -13.0389,190.8384 -13.0034,173.7524 -12.9684,156.4009 -12.931,138.5456 -12.8584,119.7348 -12.7349,99.11 -12.5287,77.5508 -12.1771,56.7348 -11.5473,37.3178 -10.3473,20.4581 -8.01,8.5147 -3.865,1.4652 -1.2638,-1.2469 A1.7753,1.7753 0 0 1 1.2638,1.2469 ZM-13.0577,212.6797 T-13.0664,209.789 -13.0849,202.968 -13.0953,194.3225 -13.0902,183.1514 -13.0802,166.6738 -13.0792,146.0776 -13.0848,124.6329 -13.0825,102.7411 -13.0746,80.6184 -13.081,59.6999 -14.3816,43.5781 -16.3643,32.513 -18.1842,25.8452 -19.3969,27.9026 -19.6142,36.2334 -19.8126,46.8766 -19.9002,59.1152 -19.931,74.832 -19.9425,95.0269 -19.9516,116.26 -18.6676,136.5741 -16.68,155.2167 -15.615,174.4486 -15.0607,192.5201 -13.4814,205.7577 -10.5219,214.3852 -8.9216,217.9952 -8.9177,218.5126 -9.0377,219.0159 -9.2747,219.4758 -9.6148,219.8656 -10.0384,220.1627 -10.5208,220.3498 -11.0339,220.416 -11.548,220.3575 -12.0331,220.1777 -12.4611,219.887 -12.807,219.5023 -13.0509,219.046 -13.5872,214.7329 -13.8373,207.2265 -13.5317,199.2763 -12.0419,188.1994 -9.9818,173.1227 -8.9392,154.8019 -8.3819,133.2102 -8.0721,109.9136 -7.9014,87.0421 -7.8094,67.0465 -7.7448,51.2754 -7.9328,42.6991 -8.1473,44.9852 -8.3418,54.3725 -8.6469,68.3326 -10.1251,87.7457 -12.2138,112.5248 -13.3037,141.345 -12.5633,169.6867 -9.555,195.103 -6.6437,217.8427 -3.8082,237.7339 -1.0359,253.4751 0.9808,266.8774 2.0428,273.9184 A2.0664,2.0664 0 0 1 -2.0428,274.5416 T-3.1282,267.5042 -5.1865,254.1923 -7.999,238.3378 -10.8154,218.3621 -13.6833,195.5923 -16.669,169.809 -17.3847,141.1896 -16.292,112.1677 -14.2394,87.4682 -12.8046,68.237 -12.5277,54.077 -11.9022,44.5543 -9.8006,38.8801 -5.7601,40.4111 -3.3749,51.1678 -3.3997,67.0647 -3.4775,87.0732 -3.6288,109.9717 -3.9302,133.3336 -4.5325,155.0693 -5.6905,173.755 -7.806,188.7076 -9.2672,199.4559 -9.5889,207.7979 -9.3813,214.6493 -8.9216,217.9952 -8.9177,218.5126 -9.0377,219.0159 -9.2747,219.4758 -9.6148,219.8656 -10.0384,220.1627 -10.5208,220.3498 -11.0339,220.416 -11.548,220.3575 -12.0331,220.1777 -12.4611,219.887 -12.807,219.5023 -13.0509,219.046 -14.7054,215.4572 -17.6799,206.3589 -19.2881,192.6584 -19.8368,174.6836 -20.8647,155.6557 -22.8484,136.8554 -24.1547,116.2595 -24.1335,95.0209 -24.0877,74.8157 -24.0095,59.0809 -23.8904,46.7954 -23.6965,36.0252 -22.4999,26.398 -19.4175,21.0111 -15.2053,23.8935 -12.3216,31.7288 -10.3246,43.1664 -9.019,59.6921 -9.0254,80.6184 -9.0174,102.7411 -9.0152,124.6329 -9.0207,146.0776 -9.0196,166.6738 -9.0095,183.1514 -9.0041,194.3224 -9.014,202.9677 -9.0328,209.789 -9.0423,212.6803 A2.0077,2.0077 0 0 1 -13.0577,212.6797 Z" stroke-linecap="round" fill="#f2f2f2"/></g></g><g transform="matrix(1, 0, 0, 1, -158.2394, -135.1633)" opacity="1"><g transform="scale(1)"><path d="M-0.845,-1.6703 T1.7881,-2.9917 9.9971,-5.0915 21.0434,-6.2436 31.0849,-5.3704 38.2584,0.0157 38.1032,8.928 29.8237,18.8288 20.3105,27.0735 18.0591,33.2224 24.3425,39.054 35.3578,46.1595 46.7114,55.5055 54.2294,66.4413 54.2344,76.9537 46.0541,85.3569 33.4672,91.1316 18.5237,91.4419 5.2224,87.461 -5.9959,82.6697 -11.8183,80.1812 A1.9766,1.9766 0 0 1 -10.2817,76.5388 T-4.4362,78.9728 6.4858,83.5221 18.5561,87.3257 31.9207,87.3376 43.3229,82.4938 50.9366,75.7831 51.1848,67.6688 44.3012,58.3294 33.2996,49.2895 21.7306,41.5936 14.8859,34.4088 17.4496,25.9111 26.9642,16.4156 34.9552,7.7235 35.9473,1.4418 30.4348,-1.9161 21.3765,-2.5658 11.0435,-1.5901 3.4385,0.3476 0.845,1.6703 A1.8718,1.8718 0 0 1 -0.845,-1.6703 Z" stroke-linecap="round" fill="#f2f2f2"/></g></g><g transform="matrix(1, 0, 0, 1, -252.0802, 71.913)" opacity="1"><g transform="scale(1)"><path d="M-1.7194,-4.7441 T-2.6607,-7.1592 -3.3767,-9.4629 -1.8871,-3.8143 -0.0048,6.6247 0.931,16.7463 1.4153,28.6906 1.676,42.9239 1.8275,57.0367 1.9237,69.7655 1.9924,81.7672 2.0287,93.39 2.0261,106.1351 2.0159,119.4666 2.0137,131.7851 2.0116,142.2478 2.0097,151.7325 2.0145,163.3506 2.0305,176.0929 2.0483,188.101 2.0549,199.7221 2.0597,211.1441 2.0757,221.1343 1.7223,229.6214 -0.6238,234.8506 -4.3186,232.7943 -6.4375,225.6048 -7.0435,215.4416 -6.0298,202.0046 -2.8735,185.5456 0.072,167.7919 2.9319,150.462 5.7373,134.6939 7.1825,119.9435 6.6507,105.7845 3.7896,91.8687 0.9622,77.7331 -1.8165,65.0453 -5.8333,53.2739 -10.5435,41.7712 -14.3757,31.5985 -17.6393,23.7216 -20.6064,17.0182 -22.493,13.3841 -23.3206,13.043 A2.2272,2.2272 0 0 1 -20.8194,9.357 T-19.3019,10.6073 -16.7386,15.0281 -13.607,22.0177 -10.2435,30.0714 -6.446,40.093 -1.6238,51.8402 2.5296,64.0815 5.3362,76.8717 8.162,90.9948 11.0824,105.5789 11.6034,120.3773 10.0741,135.4527 7.2353,151.1761 4.3574,168.4982 1.3877,186.3587 -1.735,202.3045 -2.7451,215.1822 -2.5847,226.395 -1.9824,231.5717 -1.7224,228.4649 -2.0757,221.1343 -2.0598,211.1441 -2.0551,199.7222 -2.0486,188.101 -2.031,176.093 -2.0154,163.3507 -2.0115,151.7328 -2.0149,142.2483 -2.0199,131.786 -2.0277,119.4682 -2.0486,106.1384 -2.0714,93.3967 -2.0735,81.7794 -2.0776,69.7869 -2.1194,57.0728 -2.23,42.9937 -2.4666,28.8538 -2.9257,17.0982 -3.7803,7.3705 -5.4556,-1.6353 -5.6923,-9.3662 -3.2092,-12.4601 0.0545,-9.3184 1.7194,-6.4359 A1.9162,1.9162 0 0 1 -1.7194,-4.7441 ZM-20.5382,9.5831 T-18.809,11.2822 -16.3302,16.6974 -15.2881,26.2155 -14.8538,37.6798 -14.6389,51.6287 -14.5285,70.8931 -13.169,94.1624 -9.8424,119.5599 -4.1965,146.0947 1.3987,170.7297 5.6442,188.9682 10.3789,200.9747 15.6208,211.6489 18.4197,217.3487 A2.0754,2.0754 0 0 1 14.7003,219.1913 T11.8616,213.5111 6.406,202.5914 1.4248,190.0199 -2.8482,171.6733 -8.4448,146.9915 -14.145,120.1196 -17.4846,94.402 -18.8568,70.9228 -18.9845,51.7063 -19.2215,37.8452 -19.6445,26.6782 -20.2293,18.3566 -22.0734,14.2038 -23.6018,12.8169 A2.2272,2.2272 0 0 1 -20.5382,9.5831 Z" stroke-linecap="round" fill="#f2f2f2"/></g></g><g transform="matrix(1, 0, 0, 1, -263.1203, -95.9867)" opacity="1"><g transform="scale(1)"><path d="M1.3099,1.2924 T-1.3016,3.9233 -6.4434,11.6835 -10.305,24.6973 -12.3686,40.7165 -10.9994,54.0454 -4.1608,61.8323 5.4695,64.5554 15.5251,63.5426 24.9039,61.805 33.7473,60.5442 38.3744,59.8777 A1.7115,1.7115 0 0 1 38.8856,63.2623 T34.268,63.9919 25.5694,65.3803 15.8516,67.2734 4.5339,68.1328 -6.5838,64.3741 -14.361,54.8445 -15.945,40.3317 -13.6947,23.6072 -9.3705,9.6452 -3.925,1.3743 -1.3099,-1.2924 A1.8402,1.8402 0 0 1 1.3099,1.2924 Z" stroke-linecap="round" fill="#f2f2f2"/></g></g><g transform="matrix(1, 0, 0, 1, -241.0401, -56.8101)" opacity="1"><g transform="scale(1)"><path d="M7.5251,0 T7.5361,3.9708 7.5677,14.0051 7.5905,27.2349 7.5694,39.4998 7.529,50.2792 7.5119,55.96 A2.0019,2.0019 0 0 1 3.5081,55.96 T3.491,50.2792 3.4506,39.4998 3.4295,27.2349 3.4523,14.0051 3.4839,3.9708 3.4949,0 A2.0151,2.0151 0 0 1 7.5251,0 Z" stroke-linecap="round" fill="#f2f2f2"/></g></g><g transform="matrix(1, 0, 0, 1, -191.3597, 10.3498)" opacity="1"><g transform="scale(1)"><path d="M0,1.912 T-3.9164,1.912 -12.1964,1.912 -16.56,1.912 A1.912,1.912 0 0 1 -16.56,-1.912 T-12.1964,-1.912 -3.9164,-1.912 0,-1.912 A1.912,1.912 0 0 1 0,1.912 Z" stroke-linecap="round" fill="#f2f2f2"/></g></g><g transform="matrix(1, 0, 0, 1, -69.9187, -34.4235)" opacity="1"><g transform="scale(1)"><path d="M-3.6554,0 T-3.6762,2.795 -3.6969,5.59 A1.8131,1.8131 0 0 1 -7.3231,5.59 T-7.3438,2.795 -7.3646,0 A1.8546,1.8546 0 0 1 -3.6554,0 Z" stroke-linecap="round" fill="#f2f2f2"/></g></g></svg>